<svg width="16" height="19" viewBox="0 0 16 19" fill="none" xmlns="http://www.w3.org/2000/svg">
<path fill-rule="evenodd" clip-rule="evenodd" d="M2.28821 15.8089H13.707V2.28703H5.46282C5.40409 2.28703 5.30925 2.33415 5.25993 2.38746C4.29245 3.43069 3.32175 4.49247 2.37395 5.54335C2.32609 5.59607 2.28997 5.70652 2.28968 5.80077L2.28821 15.8089ZM14.8489 0C15.4785 0 15.9908 0.513955 15.9908 1.14543V16.9543C15.9908 17.5858 15.4785 18.0995 14.8489 18.0995H1.14632C0.516218 18.0995 0.00385328 17.5858 0.00385328 16.9543C0.00385328 16.8303 0.00297243 5.81903 3.62388e-05 5.38431C-0.00260633 4.93367 0.139212 4.56905 0.446337 4.23741L3.88755 0.476844C4.18323 0.151388 4.52529 0 4.96366 0H14.8489ZM4.57192 7.97005C4.06836 7.97005 3.65847 7.55918 3.65847 7.05406C3.65847 6.54894 4.06807 6.13777 4.57162 6.13777H6.12575L6.12604 4.57735C6.12604 4.07223 6.53564 3.66136 7.03949 3.66136C7.54334 3.66136 7.95294 4.07223 7.95294 4.57735V7.05406C7.95294 7.55918 7.54334 7.97005 7.03949 7.97005H4.57192Z" fill="#41C9B4"/>
</svg>
